<?xml version="1.0" encoding="iso-8859-1"?>
<!-- Generator: Adobe Illustrator 17.1.0, SVG Export Plug-In . SVG Version: 6.00 Build 0)  -->
<!DOCTYPE svg PUBLIC "-//W3C//DTD SVG 1.1//EN" "http://www.w3.org/Graphics/SVG/1.1/DTD/svg11.dtd">
<svg xmlns="http://www.w3.org/2000/svg" xmlns:xlink="http://www.w3.org/1999/xlink" version="1.1" id="Capa_1" x="0px" y="0px" viewBox="0 0 196.478 196.478" style="enable-background:new 0 0 196.478 196.478;" xml:space="preserve" width="512px" height="512px">
<path d="M51.363,196.383c-0.132,0-0.263,0-0.396-0.001c-13.902-0.104-26.896-5.66-36.588-15.645  c-19.107-19.686-19.182-51.784-0.166-71.553c9.468-9.843,22.189-15.454,35.821-15.801c4.748-0.121,8.96-2.973,10.991-7.444  c1.249-2.749,2.973-5.233,5.125-7.385l0.333-0.333c4.757-4.758,11.084-7.378,17.814-7.378s13.058,2.621,17.816,7.379l0.985,0.985  l53.406-53.406l-1.781-1.782c-0.4-0.4-0.612-0.95-0.583-1.515c0.028-0.565,0.295-1.091,0.732-1.449l3.085-2.517l-2.67-2.67  c-0.781-0.781-0.781-2.047,0-2.828c0.781-0.781,2.047-0.781,2.828,0l2.957,2.957l4.393-3.584l-2.724-2.724  c-0.781-0.781-0.781-2.047,0-2.828s2.047-0.781,2.828,0l3.011,3.01l4.393-3.584l-2.777-2.777c-0.781-0.781-0.781-2.047,0-2.828  s2.047-0.781,2.828,0l3.068,3.067c3.147-2.393,7.563-2.108,10.38,0.709l5.295,5.294l0,0c2.818,2.818,3.103,7.233,0.709,10.381  l3.414,3.414c0.781,0.781,0.781,2.047,0,2.829s-2.047,0.781-2.828,0l-3.124-3.124l-3.584,4.393l3.356,3.357  c0.781,0.781,0.781,2.047,0,2.829c-0.781,0.78-2.047,0.781-2.828,0l-3.07-3.07l-3.584,4.393l3.303,3.304  c0.781,0.781,0.781,2.047,0,2.828c-0.781,0.781-2.047,0.781-2.828,0l-3.017-3.017l-2.517,3.084  c-0.357,0.438-0.884,0.705-1.449,0.733c-0.559,0.03-1.114-0.184-1.515-0.583l-1.781-1.781l-53.407,53.407l0.985,0.985  c9.824,9.824,9.824,25.808,0,35.632l-0.331,0.331c-2.152,2.153-4.637,3.877-7.385,5.125c-4.478,2.035-7.329,6.22-7.443,10.923  c-0.32,13.283-5.672,25.774-15.07,35.172C78.037,191.033,65.12,196.382,51.363,196.383z M84.298,74.842  c-5.662,0-10.984,2.205-14.987,6.208l-0.333,0.333c-1.811,1.811-3.261,3.9-4.31,6.21c-2.671,5.878-8.239,9.628-14.532,9.789  c-12.573,0.319-24.307,5.496-33.04,14.575C-0.442,130.19-0.373,159.794,17.25,177.95c8.939,9.21,20.924,14.335,33.747,14.431  c0.121,0.001,0.243,0.001,0.364,0.001c12.689,0,24.603-4.933,33.585-13.915c8.668-8.669,13.604-20.19,13.9-32.441  c0.15-6.25,3.9-11.793,9.787-14.468c2.31-1.049,4.398-2.5,6.211-4.312l0.331-0.331c8.264-8.264,8.264-21.711,0-29.976l-0.985-0.985  l-35.185,35.185c1.021,5.472-0.581,11.342-4.806,15.567c0,0,0,0,0,0c-4.225,4.223-10.097,5.826-15.566,4.804l-7.812,7.811  l5.048,5.048c0.781,0.781,0.781,2.047,0,2.828c-0.781,0.781-2.047,0.781-2.828,0l-24.413-24.413c-0.781-0.781-0.781-2.047,0-2.828  c0.781-0.781,2.047-0.781,2.828,0l5.446,5.446l7.811-7.811c-1.022-5.473,0.58-11.342,4.805-15.567s10.093-5.827,15.567-4.805  l35.186-35.186l-0.985-0.985C95.283,77.047,89.96,74.842,84.298,74.842z M45.277,153.778l2.718,2.717l6.367-6.367  c-1.174-0.557-2.299-1.252-3.349-2.086L45.277,153.778z M39.732,148.233l2.717,2.716l5.736-5.736  c-0.833-1.049-1.529-2.174-2.086-3.347L39.732,148.233z M75.297,134.849l-12.955,12.955c3.283-0.116,6.53-1.425,9.03-3.925  S75.181,138.132,75.297,134.849z M53.867,145.189c1.103,0.815,2.305,1.441,3.558,1.877l17.135-17.135  c-0.436-1.253-1.062-2.454-1.878-3.558L53.867,145.189z M49.161,138.803c0.436,1.252,1.062,2.454,1.877,3.557l18.815-18.815  c-1.104-0.815-2.305-1.441-3.558-1.876L49.161,138.803z M61.377,120.93c-3.283,0.116-6.529,1.424-9.03,3.925  c-2.5,2.5-3.809,5.748-3.925,9.031L61.377,120.93z M75.534,123.521c0.834,1.05,1.53,2.174,2.087,3.348l11.958-11.958l-2.718-2.718  L75.534,123.521z M69.358,118.606c1.174,0.557,2.299,1.253,3.348,2.086l11.327-11.327l-2.717-2.717L69.358,118.606z M89.69,109.365  l2.717,2.717l20.37-20.369c0.002-0.002,0.004-0.004,0.006-0.006l54.814-54.814l-2.717-2.717L89.69,109.365z M84.144,103.82  l2.717,2.717l75.191-75.19l-2.718-2.717l-54.8,54.801c-0.007,0.007-0.014,0.014-0.021,0.02L84.144,103.82z M171.867,35.504  l1.604,1.605l15.734-19.285c1.275-1.563,1.162-3.817-0.265-5.244l-5.295-5.294c-1.428-1.427-3.681-1.54-5.242-0.266l-19.285,15.735  l12.695,12.696c0.009,0.008,0.018,0.017,0.026,0.026C171.849,35.486,171.858,35.495,171.867,35.504z" fill="#933EC5"/>
<g>
</g>
<g>
</g>
<g>
</g>
<g>
</g>
<g>
</g>
<g>
</g>
<g>
</g>
<g>
</g>
<g>
</g>
<g>
</g>
<g>
</g>
<g>
</g>
<g>
</g>
<g>
</g>
<g>
</g>
</svg>
