<?xml version="1.0" encoding="UTF-8"?>
<!DOCTYPE svg PUBLIC "-//W3C//DTD SVG 1.1//EN" "http://www.w3.org/Graphics/SVG/1.1/DTD/svg11.dtd">
<svg xmlns="http://www.w3.org/2000/svg" xml:space="preserve" width="8.4666mm" height="2.8786mm" version="1.1" style="shape-rendering:geometricPrecision; text-rendering:geometricPrecision; image-rendering:optimizeQuality; fill-rule:evenodd; clip-rule:evenodd"
viewBox="0 0 847 288"
 xmlns:xlink="http://www.w3.org/1999/xlink">
 <defs>
  <style type="text/css">
   <![CDATA[
    .fil0 {fill:#4CAF50;fill-rule:nonzero}
   ]]>
  </style>
 </defs>
 <g id="ihsa">
  <metadata id="CorelCorpID_0Corel-Layer"/>
  <g id="_1005326443600">
   <path class="fil0" d="M805 275l-32 -83 -105 0 -32 83 -31 0 103 -263 26 0 103 263 -32 0zm-42 -111l-30 -81c-4,-10 -8,-23 -12,-38 -3,12 -7,24 -12,38l-31 81 85 0z"/>
   <path class="fil0" d="M568 205c0,23 -8,41 -25,54 -17,13 -39,19 -68,19 -31,0 -55,-4 -71,-12l0 -29c10,5 22,8 35,11 12,2 25,4 37,4 21,0 36,-4 46,-12 10,-8 15,-18 15,-32 0,-9 -1,-16 -5,-22 -4,-6 -10,-11 -18,-16 -9,-5 -22,-11 -39,-17 -24,-9 -42,-19 -52,-31 -11,-12 -16,-27 -16,-47 0,-20 8,-36 23,-48 15,-12 35,-18 60,-18 26,0 50,5 72,15l-10 26c-22,-9 -43,-13 -63,-13 -16,0 -29,3 -38,10 -9,7 -13,17 -13,29 0,9 1,16 5,22 3,6 9,11 17,16 8,5 20,10 36,16 28,10 46,20 57,32 10,11 15,25 15,43z"/>
   <polygon class="fil0" points="330,275 299,275 299,152 162,152 162,275 131,275 131,13 162,13 162,125 299,125 299,13 330,13 "/>
   <polygon class="fil0" points="10,275 10,13 40,13 40,275 "/>
  </g>
 </g>
</svg>
