<?xml version="1.0"?>
<svg width="295.526" height="295.526" xmlns="http://www.w3.org/2000/svg" xmlns:svg="http://www.w3.org/2000/svg">
 <g>
  <title>Layer 1</title>
  <g id="svg_1">
   <path d="m147.763,44.074c12.801,0 23.858,-8.162 27.83,-20.169c-7.578,2.086 -17.237,3.345 -27.83,3.345c-10.592,0 -20.251,-1.259 -27.828,-3.345c3.97,12.006 15.026,20.169 27.828,20.169z" fill="#D80027" id="svg_2"/>
   <path d="m295.158,58.839c-0.608,-1.706 -1.873,-3.109 -3.521,-3.873l-56.343,-26.01c-11.985,-4.06 -24.195,-7.267 -36.524,-9.611c-0.434,-0.085 -0.866,-0.126 -1.292,-0.126c-3.052,0 -5.785,2.107 -6.465,5.197c-4.502,19.82 -22.047,34.659 -43.251,34.659c-21.203,0 -38.749,-14.838 -43.25,-34.659c-0.688,-3.09 -3.416,-5.197 -6.466,-5.197c-0.426,0 -0.858,0.041 -1.292,0.126c-12.328,2.344 -24.538,5.551 -36.542,9.611l-56.323,26.009c-1.658,0.764 -2.932,2.167 -3.511,3.873c-0.599,1.726 -0.491,3.589 0.353,5.217l24.46,48.272c1.145,2.291 3.474,3.666 5.938,3.666c0.636,0 1.281,-0.092 1.917,-0.283l27.167,-8.052l0,161.97c0,3.678 3.001,6.678 6.689,6.678l161.723,0c3.678,0 6.67,-3.001 6.67,-6.678l0,-161.968l27.186,8.052c0.636,0.191 1.28,0.283 1.915,0.283c2.459,0 4.779,-1.375 5.94,-3.666l24.469,-48.272c0.824,-1.629 0.942,-3.492 0.353,-5.218z" fill="#D80027" id="svg_3"/>
  </g>
  <g id="svg_4"/>
  <g id="svg_5"/>
  <g id="svg_6"/>
  <g id="svg_7"/>
  <g id="svg_8"/>
  <g id="svg_9"/>
  <g id="svg_10"/>
  <g id="svg_11"/>
  <g id="svg_12"/>
  <g id="svg_13"/>
  <g id="svg_14"/>
  <g id="svg_15"/>
  <g id="svg_16"/>
  <g id="svg_17"/>
  <g id="svg_18"/>
  <text fill="#ffffff" stroke-width="0" x="97.72422" y="140.88054" id="xu" font-size="24" font-family="serif" text-anchor="middle" xml:space="preserve" font-weight="normal" font-style="normal" transform="matrix(2.089834996891681,0,0,2.089834996891681,-56.44662702696648,-127.52137922063594) " stroke="#000000">+1s</text>
 </g>
</svg>